<svg id="Layer_1" data-name="Layer 1" xmlns="http://www.w3.org/2000/svg" viewBox="0 0 295.68 124.41"><defs><style>.cls-1{fill:#fff;}</style></defs><title>Artboard 1</title><path class="cls-1" d="M287.6,19.29a7.93,7.93,0,1,0,8.08,7.9,8,8,0,0,0-8.08-7.9m4.51,12.54a6,6,0,0,1-4.4,1.91h-.11a6.41,6.41,0,0,1-6.4-6.55,6.35,6.35,0,1,1,12.68.06,6.66,6.66,0,0,1-1.77,4.58"/><path class="cls-1" d="M274.2,46.82c0,26.07-19.08,42.58-44.47,42.58C211.24,89.4,198,79,198,61.56,198,38,215.94,19.26,242.5,19.26c19.37,0,31.7,11.74,31.7,27.56M224,61.15c0,6.55,3.23,10.65,9.24,10.65,10.28,0,15-15.15,15-24.7,0-5.59-2.49-10.23-9-10.23C228.41,36.86,224,53,224,61.15"/><path class="cls-1" d="M158.06,102.89h5.66l1.12-6.4H173l-1.09,6.43h3.88l-.82,4.77h-3.9l-1.33,7.69-.16,1a1.16,1.16,0,0,0,.75,1.22,6.52,6.52,0,0,0,1.38.17l1.5,0-1,5.68a32,32,0,0,1-4.65.4c-2.47,0-3.91-.26-4.85-.84a4,4,0,0,1-1.78-3.11,22.18,22.18,0,0,1,.4-3.23l1.54-9h-5.7Z"/><path class="cls-1" d="M273.73,107.43a8.24,8.24,0,0,0-3.3-3.64,11.22,11.22,0,0,0-5.86-1.36,14.84,14.84,0,0,0-1.85.12c-.63.08-1.19.17-1.69.27a15.81,15.81,0,0,0-3.11,1.18,15.35,15.35,0,0,0-4.72,4.1,12.2,12.2,0,0,0-1.51,2.64,11.53,11.53,0,0,0-.81,2.76,21.11,21.11,0,0,0-.19,2.17,7.75,7.75,0,0,0,2.68,6.27,10.94,10.94,0,0,0,7.43,2.37,15.12,15.12,0,0,0,8.26-2,10.62,10.62,0,0,0,4.33-4.85h-7.83a3.88,3.88,0,0,1-3.46,1.88,3.74,3.74,0,0,1-1.38-.28,4.32,4.32,0,0,1-1.14-.84,3.34,3.34,0,0,1-.83-2.26l0-.75h15.77a12.3,12.3,0,0,0,.23-1.65c0-.26,0-.53,0-.59v-.67a11.26,11.26,0,0,0-1.07-4.83M259.54,111a4.34,4.34,0,0,1,.35-1.31,4.24,4.24,0,0,1,5.32-2.09,3.28,3.28,0,0,1,1.91,3.4Z"/><path class="cls-1" d="M286.14,27.7h1c1.09,0,1.65.42,1.79,1.33.06.2.11.41.16.6a4.52,4.52,0,0,0,.42,1.25h1.69a7.83,7.83,0,0,1-.51-1.81c-.24-1.09-.46-1.53-1.15-1.87L289.2,27l.27-.12a2,2,0,0,0,1.46-1.84,1.89,1.89,0,0,0-.74-1.61,4.24,4.24,0,0,0-2.67-.61,20.24,20.24,0,0,0-3,.23v7.79h1.58Zm0-3.6.1,0a4.48,4.48,0,0,1,1.08-.11c1.18,0,1.85.5,1.85,1.37s-.75,1.31-2,1.31h-1Z"/><polygon class="cls-1" points="14.51 20.64 75.71 20.64 72.72 37.96 36.78 68.11 67.71 68.11 64.15 87.45 0 87.45 3.06 69.76 38.56 39.98 10.95 39.98 14.51 20.64"/><path class="cls-1" d="M113.5,108.86q0-2-2.26-2t-2.5,1.47q-.12,1,2.42,1.71,2.38.52,4,1a18.87,18.87,0,0,1,2.86,1,3.77,3.77,0,0,1,2.3,3.86,7.1,7.1,0,0,1-3.48,6.3,16.25,16.25,0,0,1-9,2.25,12.92,12.92,0,0,1-7-1.71,4.93,4.93,0,0,1-2.22-4.53v-.91h7.82l0,.47q0,2.06,2.58,2.06a4.19,4.19,0,0,0,1.9-.48,1.53,1.53,0,0,0,1-1.43,1.5,1.5,0,0,0-1.07-1.35l-3.85-1a15.61,15.61,0,0,1-2.92-.86,9,9,0,0,1-2.12-1.25,3.88,3.88,0,0,1-1.35-3.18v-.48l.08-.56a7.4,7.4,0,0,1,3.14-4.81,9.3,9.3,0,0,1,3.35-1.59,19.36,19.36,0,0,1,4.82-.52q9,0,9,5.87v.64Z"/><path class="cls-1" d="M135.41,102.35a12.6,12.6,0,0,1,7.2,2q3,2.05,3,6.5l-.16,2.15a13.06,13.06,0,0,1-2.71,6.4,12.47,12.47,0,0,1-5,3.73c-.45.19-.91.35-1.39.5s-1.11.3-1.88.48a13.08,13.08,0,0,1-2.76.26,12.07,12.07,0,0,1-7.38-2.16,7.42,7.42,0,0,1-2.94-6.38l.12-1.28.12-1.07a12.9,12.9,0,0,1,4.9-8.37,14.56,14.56,0,0,1,8.83-2.8m-.71,5.52a3.65,3.65,0,0,0-3.53,2.19,19.88,19.88,0,0,0-1.35,5.25q0,3.51,2.78,3.51a3.75,3.75,0,0,0,3.53-2.23,10.63,10.63,0,0,0,1.15-4.94q0-3.78-2.58-3.78"/><path class="cls-1" d="M147.07,102.9h2.78a15.68,15.68,0,0,1,1.67-5.09,6.1,6.1,0,0,1,2.93-2.61,10,10,0,0,1,2.12-.59,16.44,16.44,0,0,1,2.72-.2H163l-1,5.2a7.45,7.45,0,0,0-2.62.28,2.8,2.8,0,0,0-1.07,1.41,3.28,3.28,0,0,0-.31,1.61h3.41l-.87,4.23-3.42.57-2.86,16h-8.21l2.78-16h-2.7Z"/><polygon class="cls-1" points="177.06 102.9 185.12 102.9 185.99 115.84 186.07 115.84 191.59 102.9 198.53 102.9 199.48 115.84 205.04 102.9 212.89 102.9 202.58 123.73 194.52 123.73 193.41 111.55 188.29 123.73 180.24 123.73 177.06 102.9"/><path class="cls-1" d="M212.15,109.33q1.15-7,13.09-7,4.88,0,6.83,1.35a4.58,4.58,0,0,1,1.95,4,17,17,0,0,1-.24,2.55L232,120.44l-.24,1.39a2.5,2.5,0,0,0,.88,1.55l-.08.36H224v-2.26a13.1,13.1,0,0,1-8.53,2.94,7.93,7.93,0,0,1-4.76-1.55,4,4,0,0,1-1.51-3.38V119l.16-1a6.48,6.48,0,0,1,2.3-4.18,9.48,9.48,0,0,1,3.61-1.83l2.14-.4,3-.52a16.46,16.46,0,0,0,4-.75c.87-.37,1.31-.89,1.31-1.55q0-1.47-2.42-1.47a3.06,3.06,0,0,0-3.25,2Zm12.62,5.24c-.66.29-5.3,1.44-5.83,1.71a1.89,1.89,0,0,0-1,1.71c0,1,.92,1.64,2.22,1.75a3.76,3.76,0,0,0,3.25-1.59,7.06,7.06,0,0,0,1.39-3.57"/><path class="cls-1" d="M237.55,102.9H245l-.72,4.25q2.58-4.8,7.3-4.8h1.07l-1.47,8.37a7.37,7.37,0,0,0-1.79-.24,5.49,5.49,0,0,0-3.91,1.39,8.57,8.57,0,0,0-2.12,4.72l-1.23,7.14H233.9Z"/><path class="cls-1" d="M153.38,20.54h9.39L166.37,0h26.09L189,20.54h12.4L198.79,35.8H186.32l-4.27,24.59-.5,3.15q0,3,2.39,3.91a20.27,20.27,0,0,0,4.41.57c1.59,0,3.19.06,4.79.06L190,86.23a101.3,101.3,0,0,1-14.88,1.28c-7.9,0-12.5-.83-15.51-2.68a12.63,12.63,0,0,1-5.69-9.93c-.12-1.51.44-5,1.28-10.34l4.92-28.75-9.21,0Z"/><path class="cls-1" d="M146.93,35.12a26.49,26.49,0,0,0-10.59-11.66q-7.18-4.35-18.79-4.35a47.77,47.77,0,0,0-5.93.38q-3,.38-5.42.88a50.13,50.13,0,0,0-10,3.79Q86.41,30,81.12,37.29a38.9,38.9,0,0,0-4.85,8.46,36.46,36.46,0,0,0-2.61,8.84c-.24,1.73-.6,5.2-.6,6.95,0,8.51,2.77,15,8.57,20.08s13.75,7.58,23.83,7.58q16.26,0,26.48-6.53t13.87-15.54H120.7a12.46,12.46,0,0,1-11.09,6.05,12,12,0,0,1-4.41-.89,14,14,0,0,1-3.66-2.67,10.73,10.73,0,0,1-2.65-7.26L99,60h49.64a39,39,0,0,0,1.55-9.33,32.62,32.62,0,0,0-3.27-15.51m-32.54,1.75c6.46,0,9,4.64,9,10.23v.14H102.09c2.42-5.64,6.41-10.38,12.3-10.38"/></svg>